<svg xmlns="http://www.w3.org/2000/svg" xmlns:xlink="http://www.w3.org/1999/xlink" fill="none" version="1.1" width="161.2476348876953" height="22.62250518798828" viewBox="0 0 161.2476348876953 22.62250518798828"><defs><linearGradient x1="1" y1="0" x2="0" y2="3.129810094833374" id="master_svg0_0_8469"><stop offset="0%" stop-color="#9F5DF2" stop-opacity="1"/><stop offset="100%" stop-color="#350E87" stop-opacity="1"/></linearGradient><linearGradient x1="1" y1="0" x2="0" y2="3.129810094833374" id="master_svg1_0_8469"><stop offset="0%" stop-color="#9F5DF2" stop-opacity="1"/><stop offset="100%" stop-color="#350E87" stop-opacity="1"/></linearGradient><linearGradient x1="1" y1="0" x2="0" y2="3.129810094833374" id="master_svg2_0_8469"><stop offset="0%" stop-color="#9F5DF2" stop-opacity="1"/><stop offset="100%" stop-color="#350E87" stop-opacity="1"/></linearGradient><linearGradient x1="0" y1="0.754369854927063" x2="0.9478623270988464" y2="0.3596723675727844" id="master_svg3_0_8475"><stop offset="0%" stop-color="#5023B0" stop-opacity="1"/><stop offset="53.490638732910156%" stop-color="#C363F3" stop-opacity="1"/><stop offset="100%" stop-color="#F891C2" stop-opacity="1"/></linearGradient><linearGradient x1="0" y1="0.754369854927063" x2="0.9478623270988464" y2="0.3596723675727844" id="master_svg4_0_8475"><stop offset="0%" stop-color="#5023B0" stop-opacity="1"/><stop offset="53.490638732910156%" stop-color="#C363F3" stop-opacity="1"/><stop offset="100%" stop-color="#F891C2" stop-opacity="1"/></linearGradient></defs><g style="mix-blend-mode:passthrough"><g><g style="mix-blend-mode:passthrough"><g><g style="mix-blend-mode:passthrough"><g><g style="mix-blend-mode:passthrough"><rect x="0" y="0" width="12.524114608764648" height="6.9400634765625" rx="0" fill="url(#master_svg0_0_8469)" fill-opacity="1"/></g><g style="mix-blend-mode:passthrough"><rect x="0" y="7.529969215393066" width="12.524114608764648" height="6.9400634765625" rx="0" fill="#D8D8D8" fill-opacity="1"/><rect x="0.25" y="7.779969215393066" width="12.024114608764648" height="6.4400634765625" rx="0" fill-opacity="0" stroke-opacity="1" stroke="#979797" stroke-width="0.5" fill="none" stroke-dasharray=""/></g><g style="mix-blend-mode:passthrough"><rect x="0" y="15.059938430786133" width="12.524114608764648" height="6.9400634765625" rx="0" fill="#D8D8D8" fill-opacity="1"/><rect x="0.25" y="15.309938430786133" width="12.024114608764648" height="6.4400634765625" rx="0" fill-opacity="0" stroke-opacity="1" stroke="#979797" stroke-width="0.5" fill="none" stroke-dasharray=""/></g><g style="mix-blend-mode:passthrough"><rect x="0" y="7.529969215393066" width="12.524114608764648" height="6.9400634765625" rx="0" fill="url(#master_svg1_0_8469)" fill-opacity="1"/></g><g style="mix-blend-mode:passthrough"><rect x="0" y="15.059938430786133" width="12.524114608764648" height="6.9400634765625" rx="0" fill="url(#master_svg2_0_8469)" fill-opacity="1"/></g><g style="mix-blend-mode:passthrough"><ellipse cx="12.631028652191162" cy="7.235015869140625" rx="6.368971347808838" ry="7.235015869140625" fill="url(#master_svg3_0_8475)" fill-opacity="1"/></g><g style="mix-blend-mode:passthrough"><path d="M12.524114461212157,0.0029821040733703373L12.524114461212157,6.94202892507337L6.267258108312158,6.94202892507337Q6.273398441212159,6.77106892507337,6.286645961212158,6.60063892507337Q6.299893461212158,6.430198925073371,6.320218461212158,6.26065892507337Q6.340543561212158,6.09112892507337,6.367900461212158,5.92286892507337Q6.395257461212158,5.754618925073371,6.429585461212159,5.588018925073371Q6.463914461212158,5.4214289250733705,6.5051364612121585,5.25685892507337Q6.546358461212158,5.092288925073371,6.594382461212158,4.93011892507337Q6.642407461212159,4.76794892507337,6.697126461212158,4.60853892507337Q6.751845461212159,4.449128925073371,6.813136461212158,4.2928389250733705Q6.874427461212158,4.13654892507337,6.9421534612121585,3.9837189250733704Q7.009880461212158,3.8308989250733703,7.0838904612121585,3.6818789250733706Q7.157901461212158,3.5328589250733704,7.238029461212158,3.3879789250733703Q7.318154461212158,3.24309892507337,7.404224461212158,3.1026889250733705Q7.490294461212159,2.9622689250733703,7.582104461212158,2.8266389250733703Q7.673924461212158,2.6909989250733704,7.771284461212158,2.5604489250733704Q7.868634461212158,2.4298989250733705,7.971314461212158,2.30471892507337Q8.073994461212159,2.1795389250733703,8.181774461212157,2.0600189250733703Q8.289544461212158,1.9404889250733703,8.402174461212159,1.8268889250733704Q8.514804461212158,1.7132789250733704,8.632024461212158,1.6058489250733703Q8.749254461212159,1.4984289250733704,8.870824461212159,1.3974089250733703Q8.992394461212157,1.2963989250733703,9.118034461212158,1.2020289250733704Q9.243664461212159,1.1076489250733703,9.373094461212158,1.0201289250733703Q9.502514461212158,0.9326099250733704,9.635434461212158,0.8521369250733704Q9.768354461212159,0.7716639250733703,9.904474461212159,0.6984189250733703Q10.040594461212159,0.6251729250733703,10.179604461212158,0.5593189250733703Q10.318624461212158,0.49346592507337034,10.460224461212158,0.43514992507337036Q10.601824461212157,0.37683492507337035,10.745694461212159,0.32618892507337033Q10.889564461212158,0.27554292507337036,11.035384461212157,0.23267892507337035Q11.181194461212158,0.18981492507337033,11.328634461212157,0.15482892507337034Q11.476064461212157,0.11984292507337034,11.624794461212158,0.09281362507337033Q11.773524461212158,0.06578412507337034,11.923214461212158,0.046771425073370336Q12.072894461212158,0.027758625073370336,12.223204461212159,0.016805225073370338Q12.373514461212158,0.0058517850733703376,12.524114461212157,0.0029821040733703373Z" fill-rule="evenodd" fill="#FFFFFF" fill-opacity="0.5525568127632141"/></g><g style="mix-blend-mode:passthrough"><ellipse cx="12.631028652191162" cy="14.764985084533691" rx="6.368971347808838" ry="7.235015869140625" fill="url(#master_svg4_0_8475)" fill-opacity="1"/></g><g style="mix-blend-mode:passthrough"><path d="M12.524114461212157,7.5330239349204104L12.524114461212157,14.47207075592041L6.267258108312158,14.47207075592041Q6.273398441212159,14.30111075592041,6.286645961212158,14.130680755920409Q6.299893461212158,13.96024075592041,6.320218461212158,13.79070075592041Q6.340543561212158,13.62117075592041,6.367900461212158,13.45291075592041Q6.395257461212158,13.28466075592041,6.429585461212159,13.11806075592041Q6.463914461212158,12.951470755920411,6.5051364612121585,12.78690075592041Q6.546358461212158,12.62233075592041,6.594382461212158,12.460160755920409Q6.642407461212159,12.29799075592041,6.697126461212158,12.13858075592041Q6.751845461212159,11.97917075592041,6.813136461212158,11.82288075592041Q6.874427461212158,11.66659075592041,6.9421534612121585,11.51376075592041Q7.009880461212158,11.36094075592041,7.0838904612121585,11.21192075592041Q7.157901461212158,11.06290075592041,7.238029461212158,10.91802075592041Q7.318154461212158,10.77314075592041,7.404224461212158,10.63273075592041Q7.490294461212159,10.49231075592041,7.582104461212158,10.35668075592041Q7.673924461212158,10.22104075592041,7.771284461212158,10.09049075592041Q7.868634461212158,9.95994075592041,7.971314461212158,9.83476075592041Q8.073994461212159,9.70958075592041,8.181774461212157,9.59006075592041Q8.289544461212158,9.47053075592041,8.402174461212159,9.356930755920411Q8.514804461212158,9.24332075592041,8.632024461212158,9.13589075592041Q8.749254461212159,9.02847075592041,8.870824461212159,8.927450755920411Q8.992394461212157,8.82644075592041,9.118034461212158,8.732070755920411Q9.243664461212159,8.63769075592041,9.373094461212158,8.55017075592041Q9.502514461212158,8.46265175592041,9.635434461212158,8.38217875592041Q9.768354461212159,8.30170575592041,9.904474461212159,8.22846075592041Q10.040594461212159,8.15521475592041,10.179604461212158,8.08936075592041Q10.318624461212158,8.02350775592041,10.460224461212158,7.96519175592041Q10.601824461212157,7.90687675592041,10.745694461212159,7.85623075592041Q10.889564461212158,7.80558475592041,11.035384461212157,7.7627207559204106Q11.181194461212158,7.71985675592041,11.328634461212157,7.68487075592041Q11.476064461212157,7.64988475592041,11.624794461212158,7.62285545592041Q11.773524461212158,7.59582595592041,11.923214461212158,7.57681325592041Q12.072894461212158,7.55780045592041,12.223204461212159,7.54684705592041Q12.373514461212158,7.53589361592041,12.524114461212157,7.5330239349204104Z" fill-rule="evenodd" fill="#FFFFFF" fill-opacity="0.5525568127632141"/></g><g style="mix-blend-mode:passthrough" transform="matrix(1,0,0,-1,0,43.9962158203125)"><path d="M12.524114461212157,21.99827108915625L12.524114461212157,28.93731791015625L6.267258108312158,28.93731791015625Q6.273398441212159,28.766357910156252,6.286645961212158,28.59592791015625Q6.299893461212158,28.42548791015625,6.320218461212158,28.25594791015625Q6.340543561212158,28.08641791015625,6.367900461212158,27.91815791015625Q6.395257461212158,27.74990791015625,6.429585461212159,27.58330791015625Q6.463914461212158,27.41671791015625,6.5051364612121585,27.25214791015625Q6.546358461212158,27.08757791015625,6.594382461212158,26.92540791015625Q6.642407461212159,26.76323791015625,6.697126461212158,26.603827910156248Q6.751845461212159,26.44441791015625,6.813136461212158,26.28812791015625Q6.874427461212158,26.13183791015625,6.9421534612121585,25.97900791015625Q7.009880461212158,25.82618791015625,7.0838904612121585,25.67716791015625Q7.157901461212158,25.52814791015625,7.238029461212158,25.38326791015625Q7.318154461212158,25.23838791015625,7.404224461212158,25.09797791015625Q7.490294461212159,24.95755791015625,7.582104461212158,24.82192791015625Q7.673924461212158,24.68628791015625,7.771284461212158,24.55573791015625Q7.868634461212158,24.42518791015625,7.971314461212158,24.30000791015625Q8.073994461212159,24.17482791015625,8.181774461212157,24.05530791015625Q8.289544461212158,23.93577791015625,8.402174461212159,23.82217791015625Q8.514804461212158,23.70856791015625,8.632024461212158,23.60113791015625Q8.749254461212159,23.49371791015625,8.870824461212159,23.39269791015625Q8.992394461212157,23.29168791015625,9.118034461212158,23.19731791015625Q9.243664461212159,23.10293791015625,9.373094461212158,23.01541791015625Q9.502514461212158,22.92789891015625,9.635434461212158,22.84742591015625Q9.768354461212159,22.76695291015625,9.904474461212159,22.69370791015625Q10.040594461212159,22.62046191015625,10.179604461212158,22.55460791015625Q10.318624461212158,22.48875491015625,10.460224461212158,22.43043891015625Q10.601824461212157,22.37212391015625,10.745694461212159,22.32147791015625Q10.889564461212158,22.27083191015625,11.035384461212157,22.22796791015625Q11.181194461212158,22.18510391015625,11.328634461212157,22.15011791015625Q11.476064461212157,22.11513191015625,11.624794461212158,22.08810261015625Q11.773524461212158,22.06107311015625,11.923214461212158,22.04206041015625Q12.072894461212158,22.02304761015625,12.223204461212159,22.01209421015625Q12.373514461212158,22.00114077015625,12.524114461212157,21.99827108915625Z" fill-rule="evenodd" fill="#FFFFFF" fill-opacity="0.5525568127632141"/></g><g style="mix-blend-mode:passthrough" transform="matrix(1,0,0,-1,0,28.936277389526367)"><path d="M12.524114461212157,14.468301873763183L12.524114461212157,21.407348694763183L6.267258108312158,21.407348694763183Q6.273398441212159,21.236388694763185,6.286645961212158,21.065958694763182Q6.299893461212158,20.895518694763183,6.320218461212158,20.725978694763185Q6.340543561212158,20.556448694763183,6.367900461212158,20.388188694763183Q6.395257461212158,20.219938694763183,6.429585461212159,20.053338694763184Q6.463914461212158,19.886748694763185,6.5051364612121585,19.722178694763183Q6.546358461212158,19.557608694763182,6.594382461212158,19.395438694763182Q6.642407461212159,19.233268694763183,6.697126461212158,19.07385869476318Q6.751845461212159,18.914448694763184,6.813136461212158,18.758158694763182Q6.874427461212158,18.601868694763183,6.9421534612121585,18.449038694763182Q7.009880461212158,18.296218694763184,7.0838904612121585,18.147198694763183Q7.157901461212158,17.998178694763183,7.238029461212158,17.853298694763183Q7.318154461212158,17.708418694763182,7.404224461212158,17.568008694763183Q7.490294461212159,17.427588694763184,7.582104461212158,17.291958694763185Q7.673924461212158,17.156318694763183,7.771284461212158,17.025768694763183Q7.868634461212158,16.895218694763184,7.971314461212158,16.770038694763183Q8.073994461212159,16.644858694763183,8.181774461212157,16.525338694763185Q8.289544461212158,16.405808694763184,8.402174461212159,16.292208694763183Q8.514804461212158,16.178598694763185,8.632024461212158,16.071168694763184Q8.749254461212159,15.963748694763183,8.870824461212159,15.862728694763184Q8.992394461212157,15.761718694763184,9.118034461212158,15.667348694763184Q9.243664461212159,15.572968694763183,9.373094461212158,15.485448694763184Q9.502514461212158,15.397929694763183,9.635434461212158,15.317456694763184Q9.768354461212159,15.236983694763184,9.904474461212159,15.163738694763184Q10.040594461212159,15.090492694763183,10.179604461212158,15.024638694763183Q10.318624461212158,14.958785694763183,10.460224461212158,14.900469694763183Q10.601824461212157,14.842154694763183,10.745694461212159,14.791508694763184Q10.889564461212158,14.740862694763184,11.035384461212157,14.697998694763184Q11.181194461212158,14.655134694763184,11.328634461212157,14.620148694763184Q11.476064461212157,14.585162694763184,11.624794461212158,14.558133394763184Q11.773524461212158,14.531103894763184,11.923214461212158,14.512091194763183Q12.072894461212158,14.493078394763183,12.223204461212159,14.482124994763183Q12.373514461212158,14.471171554763183,12.524114461212157,14.468301873763183Z" fill-rule="evenodd" fill="#FFFFFF" fill-opacity="0.5525568127632141"/></g><g style="opacity:0.6278615593910217;mix-blend-mode:passthrough"><path d="M7.1950841805522465,10.999999215393066Q7.301126453552246,10.802329215393065,7.418074453552246,10.612759215393066Q7.535023453552246,10.423189215393066,7.662400453552246,10.242499215393067Q7.789777453552246,10.061819215393067,7.927061453552247,9.890749215393067Q8.064346453552247,9.719679215393066,8.210976453552245,9.558929215393066Q8.357606453552247,9.398179215393066,8.512986453552246,9.248409215393066Q8.668356453552246,9.098629215393066,8.831846453552245,8.960449215393066Q8.995326453552247,8.822269215393067,9.166256453552247,8.696239215393067Q9.337186453552246,8.570209215393067,9.514856453552246,8.456848215393066Q9.692526453552246,8.343489215393067,9.876216453552246,8.243264215393067Q10.059896453552247,8.143039215393067,10.248846453552247,8.056358215393066Q10.437796453552245,7.969676215393067,10.631246453552246,7.896893215393066Q10.824686453552246,7.824110215393066,11.021826453552245,7.765523215393066Q11.218966453552246,7.706936215393067,11.419006453552246,7.6627852153930665Q11.619036453552246,7.6186343153930665,11.821146453552245,7.589099415393067Q12.023266453552246,7.559564615393066,12.226616453552246,7.544766915393066Q12.429976453552246,7.529969215393066,12.633756453552246,7.529969215393066Q12.837536453552246,7.529969215393066,13.040896453552246,7.544766915393066Q13.244256453552246,7.559564615393066,13.446366453552246,7.589099415393067Q13.648476453552245,7.618634215393066,13.848506453552247,7.6627852153930665Q14.048546453552246,7.706936215393067,14.245686453552246,7.765523215393066Q14.442826453552247,7.824110215393066,14.636266453552246,7.896893215393066Q14.829716453552246,7.969676215393067,15.018666453552246,8.056358215393066Q15.207616453552246,8.143039215393067,15.391296453552247,8.243264215393067Q15.574986453552246,8.343489215393067,15.752656453552246,8.456848215393066Q15.930326453552246,8.570209215393067,16.101256453552246,8.696239215393067Q16.272186453552244,8.822269215393067,16.435666453552244,8.960449215393066Q16.599156453552247,9.098629215393066,16.754526453552245,9.248409215393066Q16.909906453552246,9.398179215393066,17.056536453552248,9.558929215393066Q17.203216453552244,9.719679215393066,17.340416453552244,9.890749215393067Q17.477716453552247,10.061819215393067,17.605116453552245,10.242499215393067Q17.732516453552247,10.423189215393066,17.849416453552244,10.612759215393066Q17.966416453552245,10.802329215393065,18.072416453552247,10.999999215393066Q17.966416453552245,11.197669215393066,17.849416453552244,11.387239215393066Q17.732516453552247,11.576809215393066,17.605116453552245,11.757499215393066Q17.477716453552247,11.938189215393066,17.340416453552244,12.109259215393067Q17.203216453552244,12.280319215393067,17.056536453552248,12.441069215393068Q16.909906453552246,12.601819215393068,16.754526453552245,12.751599215393068Q16.599156453552247,12.901369215393068,16.435666453552244,13.039549215393066Q16.272186453552244,13.177739215393068,16.101256453552246,13.303769215393066Q15.930326453552246,13.429799215393066,15.752656453552246,13.543149215393067Q15.574986453552246,13.656509215393067,15.391296453552247,13.756739215393067Q15.207616453552246,13.856959215393067,15.018666453552246,13.943639215393066Q14.829716453552246,14.030329215393067,14.636266453552246,14.103109215393067Q14.442826453552247,14.175889215393067,14.245686453552246,14.234479215393065Q14.048546453552246,14.293069215393066,13.848506453552247,14.337219215393066Q13.648476453552245,14.381369215393066,13.446366453552246,14.410899215393066Q13.244256453552246,14.440439215393067,13.040896453552246,14.455239215393068Q12.837536453552246,14.470029215393065,12.633756453552246,14.470029215393065Q12.429976453552246,14.470029215393065,12.226616453552246,14.455239215393068Q12.023266453552246,14.440439215393067,11.821146453552245,14.410899215393066Q11.619036453552246,14.381369215393066,11.419006453552246,14.337219215393066Q11.218966453552246,14.293069215393066,11.021826453552245,14.234479215393065Q10.824686453552246,14.175889215393067,10.631246453552246,14.103109215393067Q10.437806453552247,14.030329215393067,10.248846453552247,13.943639215393066Q10.059896453552247,13.856959215393067,9.876216453552246,13.756739215393067Q9.692526453552246,13.656509215393067,9.514856453552246,13.543149215393067Q9.337186453552246,13.429799215393066,9.166256453552247,13.303769215393066Q8.995326453552247,13.177739215393068,8.831846453552245,13.039549215393066Q8.668356453552246,12.901369215393068,8.512986453552246,12.751599215393068Q8.357606453552247,12.601819215393068,8.210976453552245,12.441069215393068Q8.064346453552247,12.280319215393067,7.927061453552247,12.109259215393067Q7.789777453552246,11.938189215393066,7.662400453552246,11.757499215393066Q7.535023453552246,11.576809215393066,7.418074453552246,11.387239215393066Q7.301126453552246,11.197669215393066,7.1950841805522465,10.999999215393066Z" fill-rule="evenodd" fill="#FFFFFF" fill-opacity="1"/></g></g></g></g></g><g><g><g><g><path d="M31.03058,18.6399609375C30.14802,18.6399609375,29.25744,18.6136609375,28.35884,18.5611609375C27.46023,18.5086609375,26.673953,18.399960937499998,26,18.2349609375L26,3.0924609375C26.353023,3.0324609375,26.730116,2.9762109375,27.13128,2.9237109375C27.53244,2.8712109375,27.94163,2.8299609375,28.35884,2.7999610375C28.77605,2.7699608375,29.189239999999998,2.7474609375,29.59843,2.7324609375C30.00762,2.7174609275,30.39674,2.7099609375,30.765810000000002,2.7099609375C31.77674,2.7099609375,32.715469999999996,2.7812109375,33.58198,2.9237109375C34.44849,3.0662109375,35.198660000000004,3.3024609375000002,35.832499999999996,3.6324609375C36.466300000000004,3.9624609375,36.9598,4.3974609375,37.312799999999996,4.9374609375C37.665800000000004,5.4774609375,37.8423,6.1449609375000005,37.8423,6.9399609375C37.8423,7.6749609375,37.653800000000004,8.304960937499999,37.2767,8.829960937500001C36.8996,9.3549609375,36.3741,9.774960937500001,35.70012,10.089960937499999C36.711,10.4049609375,37.4572,10.8699609375,37.9386,11.4849609375C38.42,12.0999609375,38.6607,12.8799609375,38.6607,13.8249609375C38.6607,15.4299609375,38.0349,16.6336609375,36.7833,17.4361609375C35.53163,18.2386609375,33.61407,18.6399609375,31.03058,18.6399609375ZM28.98465,11.4399609375L28.98465,16.1874609375C29.32163,16.2174609375,29.68267,16.2399609375,30.06779,16.2549609375C30.45291,16.269960937500002,30.80593,16.277460937500003,31.12686,16.277460937500003C31.752679999999998,16.277460937500003,32.334360000000004,16.2399609375,32.87192,16.1649609375C33.40948,16.089960937500003,33.87483,15.9586609375,34.26797,15.7711609375C34.66111,15.5836609375,34.97401,15.3324609375,35.20669,15.0174609375C35.43936,14.7024609375,35.5557,14.2974609375,35.5557,13.8024609375C35.5557,12.9174609375,35.2107,12.3024609375,34.5207,11.9574609375C33.8307,11.6124609375,32.87593,11.4399609375,31.656399999999998,11.4399609375L28.98465,11.4399609375ZM28.98465,9.212460937500001L31.12686,9.212460937500001C32.28221,9.212460937500001,33.18884,9.058710937499999,33.84674,8.7512109375C34.50465,8.4437109375,34.833600000000004,7.8924609375,34.833600000000004,7.0974609375C34.833600000000004,6.3474609375,34.49262,5.8149609375,33.81064,5.4999609375C33.128659999999996,5.1849609375,32.24209,5.0274609375,31.15093,5.0274609375C30.68558,5.0274609375,30.27238,5.0349609375,29.91134,5.0499609375C29.55029,5.0649609375,29.2414,5.0874609374999995,28.98465,5.117460937500001L28.98465,9.212460937500001Z" fill="#FFFFFF" fill-opacity="1"/><path d="M29.28465,5.117460937500001L29.28465,9.212460937500001L28.98465,9.212460937500001L28.98465,8.9124609375L31.12686,8.9124609375Q32.79324,8.9124609375,33.71972,8.4794309375Q34.5336,8.0990309375,34.5336,7.0974609375Q34.5336,6.1643509375,33.68484,5.7723109375Q32.72174,5.3274609375,31.15093,5.3274609375Q30.459130000000002,5.3274609375,29.92379,5.3497009375Q29.39343,5.3717409375,29.01947,5.4154309375L28.98465,5.117460937500001L29.28465,5.117460937500001ZM28.68465,5.117460937500001L28.68465,4.8504709375L28.94983,4.8194909374999995Q29.3461,4.773180937499999,29.89888,4.7502209375Q30.44667,4.7274609375,31.15093,4.7274609375Q32.85361,4.7274609375,33.93644,5.2276109375Q35.13361,5.7805709375,35.13361,7.0974609375Q35.1336,8.4808909375,33.97377,9.022990937500001Q32.92653,9.5124609375,31.12686,9.5124609375L28.68465,9.5124609375L28.68465,5.117460937500001ZM31.656399999999998,11.7399609375L28.98465,11.7399609375L28.98465,11.4399609375L29.28465,11.4399609375L29.28465,16.1874609375L28.98465,16.1874609375L29.01125,15.8886609375Q29.50925,15.9329609375,30.07947,15.9551609375Q30.6513,15.9774609375,31.12686,15.9774609375Q32.04475,15.9774609375,32.83046,15.8678609375Q33.59092,15.7617609375,34.13882,15.5004609375Q34.66089,15.2514609375,34.965379999999996,14.8392609375Q35.2557,14.4461609375,35.2557,13.8024609375Q35.2557,12.6603709375,34.38653,12.2257909375Q33.41488,11.7399609375,31.656399999999998,11.7399609375ZM31.656399999999998,11.1399609375Q33.55652,11.1399609375,34.65486,11.6891309375Q35.8557,12.2895509375,35.8557,13.8024609375Q35.8557,14.6437609375,35.448,15.1956609375Q35.05446,15.7284609375,34.39711,16.0419609375Q33.76558,16.343160937500002,32.91337,16.4620609375Q32.0864,16.5774609375,31.12686,16.5774609375Q30.63965,16.5774609375,30.05612,16.5547609375Q29.4709,16.5319609375,28.95805,16.4862609375L28.68465,16.461960937500002L28.68465,11.1399609375L31.656399999999998,11.1399609375ZM36.9452,17.6887609375Q34.99374,18.9399609375,31.03058,18.9399609375Q29.69795,18.9399609375,28.34134,18.8606609375Q26.966119,18.7803609375,25.9286596,18.5263609375L25.7,18.4703609375L25.7,2.8391469375L25.9497328,2.7967022375Q26.484923,2.7057410575,27.09235,2.6262474375Q27.70277,2.5463619375,28.33732,2.5007339375Q28.96839,2.4553559375,29.58744,2.4326619375Q30.20671,2.4099609375,30.765810000000002,2.4099609375Q32.30671,2.4099609375,33.63066,2.6276872375Q34.97775,2.8492189375,35.97104,3.3663659375Q36.9914,3.8976109375,37.563900000000004,4.7733009375Q38.1423,5.6581009375,38.1423,6.9399609375Q38.1423,8.139040937499999,37.5203,9.004970937500001Q36.909,9.8560809375,35.82714,10.361740937499999L35.70012,10.089960937499999L35.78936,9.8035409375Q37.3951,10.303870937500001,38.1748,11.3000509375Q38.9607,12.3040109375,38.9607,13.8249609375Q38.9607,16.396460937500002,36.9452,17.6887609375L36.9452,17.6887609375ZM36.6213,17.1836609375Q38.3607,16.0684609375,38.3607,13.8249609375Q38.3607,12.5109109375,37.7024,11.6698809375Q37.0379,10.8210509375,35.61087,10.376380937499999L34.871629999999996,10.1460409375L35.57309,9.8181809375Q36.5131,9.3788409375,37.033,8.6549509375Q37.5423,7.9458809375,37.5423,6.9399609375Q37.5423,5.836820937500001,37.0617,5.1016209375Q36.5751,4.3573109375,35.693960000000004,3.8985609375Q34.785740000000004,3.4257029375,33.5333,3.2197349375Q32.25771,3.0099609375,30.765810000000002,3.0099609375Q30.21771,3.0099609375,29.60942,3.0322599375Q29.00091,3.0545669375,28.38035,3.0991889375Q27.76327,3.1435609375,27.17021,3.2211749375Q26.574152,3.2991799375,26.0502672,3.3882199374999997L26,3.0924609375L26.3,3.0924609375L26.3,18.2349609375L26,18.2349609375L26.0713409,17.9435609375Q27.05572,18.184560937500002,28.37633,18.2617609375Q29.71547,18.339960937500003,31.03058,18.339960937500003Q34.81791,18.339960937500003,36.6213,17.1836609375L36.6213,17.1836609375Z" fill="#FFFFFF" fill-opacity="1"/><path d="M51.9951802734375,18.09994384765625C51.4335002734375,18.23494384765625,50.7033902734375,18.37364384765625,49.8047802734375,18.516143847656252C48.906170273437496,18.65864384765625,47.9193202734375,18.72994384765625,46.8442002734375,18.72994384765625C45.8332702734375,18.72994384765625,44.9868202734375,18.59494384765625,44.3048402734375,18.32494384765625C43.6228602734375,18.05494384765625,43.0772802734375,17.67994384765625,42.6680902734375,17.19994384765625C42.2589072734375,16.71994384765625,41.9660582734375,16.14619384765625,41.7895472734375,15.47869384765625C41.6130350734375,14.81119384765625,41.5247802734375,14.07994384765625,41.5247802734375,13.284943847656251L41.5247802734375,6.69244384765625L44.437220273437504,6.69244384765625L44.437220273437504,12.85744384765625C44.437220273437504,14.11744384765625,44.6337902734375,15.01744384765625,45.0269302734375,15.55744384765625C45.4200702734375,16.09744384765625,46.1060602734375,16.36744384765625,47.0849002734375,16.36744384765625C47.4379202734375,16.36744384765625,47.8110002734375,16.35244384765625,48.2041402734375,16.322443847656253C48.5972802734375,16.29244384765625,48.8901302734375,16.25494384765625,49.0826902734375,16.20994384765625L49.0826902734375,6.69244384765625L51.9951802734375,6.69244384765625L51.9951802734375,18.09994384765625Z" fill="#FFFFFF" fill-opacity="1"/><path d="M52.2951802734375,6.69244384765625L52.2951802734375,18.336343847656252L52.0652802734375,18.391643847656248Q51.2113202734375,18.59694384765625,49.8517702734375,18.812443847656247Q48.4805002734375,19.02994384765625,46.8442002734375,19.02994384765625Q45.2705802734375,19.02994384765625,44.1944102734375,18.60384384765625Q43.1020102734375,18.17134384765625,42.4397912734375,17.39454384765625Q41.7817332734375,16.62262384765625,41.4995166734375,15.55538384765625Q41.2247802734375,14.51644384765625,41.2247802734375,13.284943847656251L41.2247802734375,6.39244384765625L44.7372202734375,6.39244384765625L44.7372202734375,12.85744384765625Q44.7372202734375,14.649803847656251,45.2694602734375,15.38087384765625Q45.7693102734375,16.06744384765625,47.0849002734375,16.06744384765625Q47.6030102734375,16.06744384765625,48.181310273437504,16.02331384765625Q48.748040273437496,15.98006384765625,49.0144202734375,15.91781384765625L49.0826902734375,16.20994384765625L48.7826902734375,16.20994384765625L48.7826902734375,6.39244384765625L52.2951802734375,6.39244384765625L52.2951802734375,6.69244384765625ZM51.6951802734375,6.69244384765625L51.9951802734375,6.69244384765625L51.9951802734375,6.99244384765625L49.0826902734375,6.99244384765625L49.0826902734375,6.69244384765625L49.382690273437504,6.69244384765625L49.382690273437504,16.44792384765625L49.1509602734375,16.50207384765625Q48.8396702734375,16.57481384765625,48.2269702734375,16.62157384765625Q47.6258702734375,16.66744384765625,47.0849002734375,16.66744384765625Q45.463970273437496,16.66744384765625,44.7844002734375,15.73401384765625Q44.1372202734375,14.84508384765625,44.1372202734375,12.85744384765625L44.1372202734375,6.69244384765625L44.437220273437504,6.69244384765625L44.437220273437504,6.99244384765625L41.5247802734375,6.99244384765625L41.5247802734375,6.69244384765625L41.8247802734375,6.69244384765625L41.8247802734375,13.284943847656251Q41.8247802734375,14.43845384765625,42.0795782734375,15.40200384765625Q42.3268972734375,16.33726384765625,42.8964002734375,17.00534384765625Q43.4617302734375,17.668543847656252,44.4152702734375,18.04604384765625Q45.3850402734375,18.42994384765625,46.8442002734375,18.42994384765625Q48.4332302734375,18.42994384765625,49.7577902734375,18.21994384765625Q51.0940502734375,18.00794384765625,51.9249802734375,17.80824384765625L51.9951802734375,18.09994384765625L51.6951802734375,18.09994384765625L51.6951802734375,6.69244384765625Z" fill="#FFFFFF" fill-opacity="1"/><path d="M64.0543584375,12.5425C64.0543584375,11.3875,63.8096484375,10.4725,63.3202284375,9.7975C62.830808437499996,9.1225,62.0565684375,8.785,60.9974984375,8.785C60.5160984375,8.785,60.062788437500004,8.8525,59.6375584375,8.9875C59.2123184375,9.1225,58.8713384375,9.2725,58.614588437500004,9.4375L58.614588437500004,16.21C58.8231984375,16.255000000000003,59.0919684375,16.296300000000002,59.4209284375,16.3337C59.7498784375,16.371299999999998,60.1470284375,16.39,60.6123784375,16.39C61.6874984375,16.39,62.5299384375,16.0487,63.1397084375,15.3663C63.7494784375,14.6838,64.0543584375,13.7425,64.0543584375,12.5425ZM67.0390484375,12.5875C67.0390484375,13.5325,66.8905484375,14.3837,66.5937484375,15.1412C66.2968484375,15.8988,65.8716484375,16.5475,65.3180184375,17.0875C64.7644184375,17.6275,64.0944784375,18.04,63.308198437499996,18.325C62.5219184375,18.61,61.6313384375,18.7525,60.6364484375,18.7525C59.6736584375,18.7525,58.7549984375,18.685,57.8804584375,18.55C57.0059284375,18.415,56.2798234375,18.265,55.7021484375,18.1L55.7021484375,1.45L58.614588437500004,1L58.614588437500004,7.0975C58.9515684375,6.9325,59.3647684375,6.7825,59.854178437499996,6.6475C60.3435984375,6.5125,60.8851684375,6.445,61.4788984375,6.445C62.3614484375,6.445,63.1517384375,6.59125,63.8497684375,6.88375C64.5477884375,7.17625,65.1294784375,7.5925,65.5948184375,8.1325C66.0601484375,8.6725,66.4172484375,9.32125,66.6659484375,10.07875C66.9146484375,10.83625,67.0390484375,11.6725,67.0390484375,12.5875Z" fill="#FFFFFF" fill-opacity="1"/><path d="M66.9509484375,9.98516Q67.3390484375,11.167,67.3390484375,12.5875Q67.3390484375,14.0617,66.8730484375,15.2507Q66.4041484375,16.4471,65.5274984375,17.3023Q64.65072843749999,18.1575,63.4104284375,18.607Q62.1814684375,19.0525,60.6364484375,19.0525Q59.1692784375,19.0525,57.8346984375,18.8465Q56.5043164375,18.6411,55.6197535375,18.3885L55.4021484375,18.3263L55.4021484375,1.192793L58.9145884375,0.6500870000000001L58.9145884375,7.0975L58.614588437500004,7.0975L58.4826584375,6.82807Q59.0132784375,6.56825,59.7744084375,6.3583Q60.5476884375,6.145,61.4788984375,6.145Q62.8630484375,6.145,63.9657084375,6.60706Q65.0779284375,7.07312,65.8220484375,7.93666Q66.5591484375,8.79202,66.9509484375,9.98516L66.9509484375,9.98516ZM66.3809484375,10.17234Q66.0264484375,9.09298,65.3675584375,8.32834Q64.7156784375,7.57188,63.7338184375,7.16044Q62.7424084375,6.745,61.4788984375,6.745Q60.6289184375,6.745,59.9339584375,6.9367Q59.2268184375,7.13175,58.7465184375,7.36693L58.3145884375,7.57843L58.3145884375,1L58.614588437500004,1L58.6603984375,1.2964820000000001L55.7479577375,1.7464819999999999L55.7021484375,1.45L56.0021484375,1.45L56.0021484375,18.1L55.7021484375,18.1L55.7845424375,17.8115Q56.6329874375,18.0539,57.9262284375,18.2535Q59.2153184375,18.4525,60.6364484375,18.4525Q62.0760884375,18.4525,63.2059584375,18.043Q64.3244984375,17.6375,65.1085484375,16.872700000000002Q65.8926484375,16.1079,66.3144484375,15.0318Q66.7390484375,13.9483,66.7390484375,12.5875Q66.7390484375,11.263,66.3809484375,10.17234L66.3809484375,10.17234ZM62.9159884375,15.1664Q63.7543584375,14.228,63.7543584375,12.5425Q63.7543584375,10.90731,63.0773584375,9.9736Q62.4330684375,9.085,60.9974984375,9.085Q60.3218884375,9.085,59.7283284375,9.27344Q59.1284184375,9.46389,58.7767884375,9.68988L58.614588437500004,9.4375L58.9145884375,9.4375L58.9145884375,16.21L58.614588437500004,16.21L58.6778484375,15.9167Q58.9762484375,15.9811,59.4549084375,16.0357Q59.9313784375,16.09,60.6123784375,16.09Q62.0907884375,16.09,62.9159884375,15.1664L62.9159884375,15.1664ZM63.3634284375,15.5661Q62.3593184375,16.689999999999998,60.6123784375,16.689999999999998Q59.8972984375,16.689999999999998,59.3869484375,16.6318Q58.8787784375,16.573900000000002,58.5513284375,16.5033L58.3145884375,16.452199999999998L58.3145884375,9.27369L58.4523984375,9.18512Q58.8709984375,8.91611,59.5467784375,8.70156Q60.2289284375,8.485,60.9974984375,8.485Q62.7391384375,8.485,63.5631084375,9.6214Q64.3543584375,10.71268,64.3543584375,12.5425Q64.3543584375,14.457,63.3634284375,15.5661L63.3634284375,15.5661Z" fill="#FFFFFF" fill-opacity="1"/><path d="M78.39957328125,12.5425C78.39957328125,11.3875,78.15486328125,10.4725,77.66544328125,9.7975C77.17602328125,9.1225,76.40178328125,8.785,75.34271328125,8.785C74.86131328125,8.785,74.40800328125,8.8525,73.98277328125,8.9875C73.55753328125,9.1225,73.21655328125,9.2725,72.95980328125,9.4375L72.95980328125,16.21C73.16841328125,16.255000000000003,73.43718328125,16.296300000000002,73.76614328125,16.3337C74.09509328125,16.371299999999998,74.49224328125,16.39,74.95759328125,16.39C76.03271328125,16.39,76.87515328125,16.0487,77.48492328125,15.3663C78.09469328125,14.6838,78.39957328125,13.7425,78.39957328125,12.5425ZM81.38426328125,12.5875C81.38426328125,13.5325,81.23576328125,14.3837,80.93896328125,15.1412C80.64206328125,15.8988,80.21686328125,16.5475,79.66323328125,17.0875C79.10963328125,17.6275,78.43969328125,18.04,77.65341328125,18.325C76.86713328125,18.61,75.97655328125,18.7525,74.98166328125001,18.7525C74.01887328125,18.7525,73.10021328125,18.685,72.22567328125,18.55C71.35114328125,18.415,70.62503828125,18.265,70.04736328125,18.1L70.04736328125,1.45L72.95980328125,1L72.95980328125,7.0975C73.29678328125,6.9325,73.70998328125,6.7825,74.19939328125,6.6475C74.68881328125,6.5125,75.23038328125,6.445,75.82411328124999,6.445C76.70666328125,6.445,77.49695328125,6.59125,78.19498328125,6.88375C78.89300328125,7.17625,79.47469328125,7.5925,79.94003328125,8.1325C80.40536328125,8.6725,80.76246328125,9.32125,81.01116328125,10.07875C81.25986328125,10.83625,81.38426328125,11.6725,81.38426328125,12.5875Z" fill="#FFFFFF" fill-opacity="1"/><path d="M81.29616328125,9.98516Q81.68426328125,11.167,81.68426328125,12.5875Q81.68426328125,14.0617,81.21826328125,15.2507Q80.74936328125,16.4471,79.87271328125,17.3023Q78.99594328124999,18.1575,77.75564328125,18.607Q76.52668328125,19.0525,74.98166328125001,19.0525Q73.51449328125,19.0525,72.17991328125,18.8465Q70.84953128125,18.6411,69.96496838125,18.3885L69.74736328125,18.3263L69.74736328125,1.192793L73.25980328125,0.6500870000000001L73.25980328125,7.0975L72.95980328125,7.0975L72.82787328125,6.82807Q73.35849328125,6.56825,74.11962328125,6.3583Q74.89290328125,6.145,75.82411328124999,6.145Q77.20826328125,6.145,78.31092328125,6.60706Q79.42314328125,7.07312,80.16726328125,7.93666Q80.90436328125,8.79202,81.29616328125,9.98516L81.29616328125,9.98516ZM80.72616328125,10.17234Q80.37166328125,9.09298,79.71277328125,8.32834Q79.06089328125,7.57188,78.07903328125,7.16044Q77.08762328125,6.745,75.82411328124999,6.745Q74.97413328125,6.745,74.27917328125,6.9367Q73.57203328125,7.13175,73.09173328125,7.36693L72.65980328125,7.57843L72.65980328125,1L72.95980328125,1L73.00561328125,1.2964820000000001L70.09317258125,1.7464819999999999L70.04736328125,1.45L70.34736328125,1.45L70.34736328125,18.1L70.04736328125,18.1L70.12975728125,17.8115Q70.97820228125,18.0539,72.27144328125,18.2535Q73.56053328125,18.4525,74.98166328125001,18.4525Q76.42130328125,18.4525,77.55117328125,18.043Q78.66971328125,17.6375,79.45376328125,16.872700000000002Q80.23786328125,16.1079,80.65966328125,15.0318Q81.08426328125,13.9483,81.08426328125,12.5875Q81.08426328125,11.263,80.72616328125,10.17234L80.72616328125,10.17234ZM77.26120328125,15.1664Q78.09957328125,14.228,78.09957328125,12.5425Q78.09957328125,10.90731,77.42257328125,9.9736Q76.77828328125,9.085,75.34271328125,9.085Q74.66710328125001,9.085,74.07354328125,9.27344Q73.47363328125,9.46389,73.12200328125,9.68988L72.95980328125,9.4375L73.25980328125,9.4375L73.25980328125,16.21L72.95980328125,16.21L73.02306328125,15.9167Q73.32146328125,15.9811,73.80012328125,16.0357Q74.27659328125,16.09,74.95759328125,16.09Q76.43600328125,16.09,77.26120328125,15.1664L77.26120328125,15.1664ZM77.70864328125,15.5661Q76.70453328125,16.689999999999998,74.95759328125,16.689999999999998Q74.24251328125,16.689999999999998,73.73216328125,16.6318Q73.22399328125,16.573900000000002,72.89654328125,16.5033L72.65980328125,16.452199999999998L72.65980328125,9.27369L72.79761328125,9.18512Q73.21621328125,8.91611,73.89199328125,8.70156Q74.57414328125,8.485,75.34271328125,8.485Q77.08435328125,8.485,77.90832328125,9.6214Q78.69957328125,10.71268,78.69957328125,12.5425Q78.69957328125,14.457,77.70864328125,15.5661L77.70864328125,15.5661Z" fill="#FFFFFF" fill-opacity="1"/><path d="M88.773800703125,18.685C87.907300703125,18.67,87.189210703125,18.58,86.619560703125,18.415C86.049910703125,18.25,85.596600703125,18.0138,85.259621703125,17.7063C84.922645703125,17.3988,84.685955703125,17.0162,84.549561703125,16.558799999999998C84.413167603125,16.1012,84.344970703125,15.58,84.344970703125,14.995L84.344970703125,1.45L87.257410703125,1L87.257410703125,14.4775C87.257410703125,14.8075,87.285490703125,15.085,87.341660703125,15.31C87.397820703125,15.535,87.498110703125,15.7262,87.642530703125,15.8837C87.786950703125,16.0413,87.983510703125,16.1613,88.232240703125,16.2437C88.48096070312499,16.3262,88.797870703125,16.39,89.182990703125,16.435000000000002L88.773800703125,18.685Z" fill="#FFFFFF" fill-opacity="1"/><path d="M89.478150703125,16.4887L89.023370703125,18.9894L88.768610703125,18.985Q87.428940703125,18.9618,86.536100703125,18.7032Q85.614490703125,18.4362,85.057402703125,17.9279Q84.490439703125,17.4105,84.262066103125,16.6445Q84.044970703125,15.9163,84.044970703125,14.995L84.044970703125,1.192793L87.557410703125,0.6500870000000001L87.557410703125,14.4775Q87.557410703125,14.9356,87.632730703125,15.2373Q87.698520703125,15.5009,87.863640703125,15.681Q88.027590703125,15.8598,88.326690703125,15.959Q88.670640703125,16.0731,89.217810703125,16.137L89.535350703125,16.1741L89.478150703125,16.4887ZM88.887830703125,16.3813L89.182990703125,16.435000000000002L89.148180703125,16.733Q88.540020703125,16.6619,88.137790703125,16.5285Q87.690730703125,16.380200000000002,87.421410703125,16.0865Q87.153290703125,15.7941,87.050590703125,15.3827Q86.957410703125,15.0094,86.957410703125,14.4775L86.957410703125,1L87.257410703125,1L87.303220703125,1.2964820000000001L84.390780003125,1.7464819999999999L84.344970703125,1.45L84.644970703125,1.45L84.644970703125,14.995Q84.644970703125,15.8287,84.837056703125,16.473Q85.017862703125,17.0795,85.461840703125,17.4846Q85.915670703125,17.8988,86.703030703125,18.1268Q87.519160703125,18.3632,88.779000703125,18.385L88.773800703125,18.685L88.478650703125,18.6313L88.887830703125,16.3813Z" fill="#FFFFFF" fill-opacity="1"/><path d="M90.8438720703125,12.63240234375C90.8438720703125,11.59740234375,91.0083500703125,10.68990234375,91.3373010703125,9.90990234375C91.6662570703125,9.12990234375,92.1035220703125,8.48115234375,92.6491020703125,7.96365234375C93.1946820703125,7.44615234375,93.8205020703125,7.05615234375,94.5265520703125,6.79365234375C95.2325920703125,6.53115234375,95.9546920703125,6.39990234375,96.6928220703125,6.39990234375C98.4258420703125,6.39990234375,99.7777720703125,6.9024023437499995,100.7485820703125,7.90740234375C101.7193720703125,8.91240234375,102.2047720703125,10.41240234375,102.2047720703125,12.40740234375C102.2047720703125,12.557402343749999,102.2007720703125,12.72615234375,102.1927720703125,12.91365234375C102.1847720703125,13.10115234375,102.1726720703125,13.269902343750001,102.1566720703125,13.41990234375L93.8525920703125,13.41990234375C93.9328220703125,14.36490234375,94.2898620703125,15.09615234375,94.9236920703125,15.61365234375C95.5575320703125,16.13115234375,96.47619207031249,16.389902343750002,97.6796820703125,16.389902343750002C98.3857320703125,16.389902343750002,99.0316020703125,16.32990234375,99.6173020703125,16.209902343750002C100.2030020703125,16.089902343749998,100.6643420703125,15.96240234375,101.0012720703125,15.82740234375L101.3864720703125,18.05490234375C101.2259720703125,18.12990234375,101.0053720703125,18.208702343749998,100.7245120703125,18.291102343749998C100.4437020703125,18.37370234375,100.1227720703125,18.44860234375,99.7617220703125,18.51610234375C99.4006720703125,18.58360234375,99.0115520703125,18.639902343750002,98.5943420703125,18.68490234375C98.1771320703125,18.72990234375,97.7518920703125,18.75240234375,97.3186420703125,18.75240234375C96.2114320703125,18.75240234375,95.2486420703125,18.598602343750002,94.4302720703125,18.291102343749998C93.6118920703125,17.98360234375,92.9379420703125,17.55620234375,92.4084020703125,17.008702343750002C91.8788720703125,16.46110234375,91.4857350703125,15.81615234375,91.2289910703125,15.07365234375C90.9722470703125,14.33115234375,90.8438720703125,13.51740234375,90.8438720703125,12.63240234375ZM99.29236207031249,11.41740234375C99.29236207031249,11.04240234375,99.2362020703125,10.686152343749999,99.1238720703125,10.34865234375C99.0115520703125,10.01115234375,98.84707207031249,9.71865234375,98.6304420703125,9.47115234375C98.4138120703125,9.22365234375,98.14905207031251,9.02865234375,97.8361420703125,8.88615234375C97.5232320703125,8.74365234375,97.1501520703125,8.67240234375,96.7168920703125,8.67240234375C96.2675920703125,8.67240234375,95.8744520703125,8.75115234375,95.5374720703125,8.90865234375C95.2005020703125,9.06615234375,94.9156720703125,9.27240234375,94.6830020703125,9.52740234375C94.4503320703125,9.78240234375,94.2698020703125,10.07490234375,94.1414320703125,10.404902343749999C94.0130520703125,10.73490234375,93.9248020703125,11.07240234375,93.8766620703125,11.41740234375L99.29236207031249,11.41740234375Z" fill="#FFFFFF" fill-opacity="1"/><path d="M93.8766620703125,11.117402343750001L99.29236207031249,11.117402343750001L99.29236207031249,11.41740234375L98.9923620703125,11.41740234375Q98.9923620703125,10.90351234375,98.8392220703125,10.44339234375Q98.6898220703125,9.99450234375,98.4047020703125,9.66873234375Q98.1223220703125,9.34612234375,97.7118120703125,9.15917234375Q97.3016820703125,8.97240234375,96.7168920703125,8.97240234375Q96.1095920703125,8.97240234375,95.6645020703125,9.18043234375Q95.2132620703125,9.39134234375,94.9046220703125,9.72961234375Q94.5932920703125,10.07080234375,94.4210220703125,10.51366234375Q94.2411620703125,10.97600234375,94.1737820703125,11.458862343749999L93.8766620703125,11.41740234375L93.8766620703125,11.117402343750001ZM93.8766620703125,11.717402343749999L93.5318920703125,11.717402343749999L93.5795420703125,11.375942343750001Q93.6566020703125,10.823732343749999,93.8618420703125,10.29614234375Q94.0746720703125,9.74902234375,94.4613920703125,9.32519234375Q94.8507320703125,8.89848234375,95.4104520703125,8.63687234375Q95.9762920703125,8.37240234375,96.7168920703125,8.37240234375Q97.4318720703125,8.37240234375,97.9604820703125,8.61313234375Q98.4886620703125,8.85367234375,98.8561920703125,9.27357234375Q99.2209420703125,9.69031234375,99.4085220703125,10.25391234375Q99.5923620703125,10.80629234375,99.5923620703125,11.41740234375L99.5923620703125,11.717402343749999L93.8766620703125,11.717402343749999ZM90.9454630703125,15.17169234375Q90.5438720703125,14.01030234375,90.5438720703125,12.63240234375Q90.5438720703125,11.01923234375,91.0608770703125,9.793322343749999Q91.5787180703125,8.56545234375,92.4426520703125,7.74599234375Q93.3054920703125,6.92756334375,94.4220020703125,6.51245734375Q95.5316520703125,6.09990234375,96.6928220703125,6.09990234375Q99.4196820703125,6.09990234375,100.96437207031249,7.69897234375Q102.5047720703125,9.29367234375,102.5047720703125,12.40740234375Q102.5047720703125,12.63872234375,102.4924720703125,12.92648234375Q102.4800720703125,13.21733234375,102.4549720703125,13.451822343749999L102.4262720703125,13.71990234375L93.8525920703125,13.71990234375L93.8525920703125,13.41990234375L94.1515220703125,13.394522343750001Q94.2611120703125,14.68539234375,95.1134320703125,15.38127234375Q95.9813720703125,16.089902343749998,97.6796820703125,16.089902343749998Q98.7083520703125,16.089902343749998,99.5570820703125,15.91601234375Q100.40926207031251,15.74141234375,100.8897720703125,15.54892234375L101.2337720703125,15.41109234375L101.7210720703125,18.229602343750003L101.5134720703125,18.32670234375Q101.2521720703125,18.44880234375,100.8090720703125,18.57900234375Q100.3733420703125,18.70700234375,99.8168520703125,18.811002343749998Q99.2638820703125,18.914402343749998,98.6265120703125,18.98320234375Q97.9846320703125,19.05240234375,97.3186420703125,19.05240234375Q95.6033220703125,19.05240234375,94.3247520703125,18.57200234375Q93.0340020703125,18.08700234375,92.1927620703125,17.21720234375Q91.3522870703125,16.34821234375,90.9454620703125,15.17169234375L90.9454630703125,15.17169234375ZM91.51251907031249,14.97561234375Q91.8759320703125,16.02659234375,92.6240420703125,16.800102343749998Q93.3714220703125,17.57280234375,94.5357920703125,18.01030234375Q95.7123220703125,18.452402343750002,97.3186420703125,18.452402343750002Q97.9523620703125,18.452402343750002,98.5621720703125,18.38660234375Q99.17645207031251,18.32040234375,99.7065920703125,18.22130234375Q100.2332820703125,18.12280234375,100.6399520703125,18.00330234375Q101.0393720703125,17.88600234375,101.2593720703125,17.783102343750002L101.3864720703125,18.05490234375L101.0907720703125,18.10600234375L100.7057020703125,15.87851234375L101.0012720703125,15.82740234375L101.1128720703125,16.10588234375Q100.5824220703125,16.31840234375,99.6775120703125,16.50380234375Q98.7691820703125,16.68990234375,97.6796820703125,16.68990234375Q95.7675420703125,16.68990234375,94.7339620703125,15.84603234375Q93.6847620703125,14.98941234375,93.5536720703125,13.44528234375L93.5260420703125,13.119902343749999L102.1566720703125,13.119902343749999L102.1566720703125,13.41990234375L101.8583720703125,13.38798234375Q101.8813720703125,13.172542343749999,101.8930720703125,12.90082234375Q101.9047720703125,12.625902343749999,101.9047720703125,12.40740234375Q101.9047720703125,9.53614234375,100.5328120703125,8.11583234375Q99.1650420703125,6.69990234375,96.6928220703125,6.69990234375Q95.6395820703125,6.69990234375,94.6310920703125,7.07484734375Q93.6294720703125,7.4472323437500005,92.8555620703125,8.18131234375Q92.0827520703125,8.91434234375,91.6137240703125,10.02648234375Q91.1438720703125,11.140582343750001,91.1438720703125,12.63240234375Q91.1438720703125,13.90949234375,91.51251907031249,14.97561234375L91.51251907031249,14.97561234375Z" fill="#FFFFFF" fill-opacity="1"/><path d="M109.473716875,16.34500732421875C110.564876875,16.34500732421875,111.359176875,16.17250732421875,111.856616875,15.82750732421875C112.354056875,15.48250732421875,112.60278687499999,14.99500732421875,112.60278687499999,14.36500732421875C112.60278687499999,13.99000732421875,112.518536875,13.66750732421875,112.350046875,13.39750732421875C112.181566875,13.12750732421875,111.940866875,12.88380732421875,111.627956875,12.66620732421875C111.31504687500001,12.44875732421875,110.933946875,12.24625732421875,110.484646875,12.05875732421875C110.035336875,11.87125732421875,109.521846875,11.68750732421875,108.944176875,11.50750732421875C108.366506875,11.31250732421875,107.808886875,11.09875732421875,107.271326875,10.86625732421875C106.733766875,10.63375732421875,106.260396875,10.34500732421875,105.851216875,10.00000732421875C105.442026875,9.65500732421875,105.113075875,9.24250732421875,104.864350875,8.762507324218749C104.615631875,8.28250732421875,104.491271875,7.70500732421875,104.491271875,7.03000732421875C104.491271875,5.62000732421875,105.012784875,4.51375732421875,106.055806875,3.7112573242187503C107.098826875,2.90875732421875,108.518946875,2.50750732421875,110.316156875,2.50750732421875C111.359176875,2.50750732421875,112.285866875,2.61625732421875,113.096216875,2.83375732421875C113.906566875,3.05125732421875,114.544396875,3.2875073242187502,115.009796875,3.54250732421875L114.071036875,5.83750732421875C113.525456875,5.55250732421875,112.927726875,5.335007324218751,112.277846875,5.18500732421875C111.627956875,5.03500732421875,110.958016875,4.960007324218751,110.268016875,4.960007324218751C109.449646875,4.960007324218751,108.811786875,5.117507324218749,108.354466875,5.43250732421875C107.897136875,5.74750732421875,107.668476875,6.19000732421875,107.668476875,6.76000732421875C107.668476875,7.10500732421875,107.744706875,7.40125732421875,107.897136875,7.64875732421875C108.049586875,7.89625732421875,108.266216875,8.11750732421875,108.547026875,8.31250732421875C108.827836875,8.50750732421875,109.156796875,8.68750732421875,109.53388687500001,8.852507324218749C109.910976875,9.01750732421875,110.324176875,9.17500732421875,110.773486875,9.325007324218749C111.559756875,9.59500732421875,112.261796875,9.86875732421875,112.879586875,10.14625732421875C113.497376875,10.42375732421875,114.01888687499999,10.75375732421875,114.444096875,11.13625732421875C114.869396875,11.51875732421875,115.19429687499999,11.96875732421875,115.418896875,12.48625732421875C115.643596875,13.00370732421875,115.755896875,13.63000732421875,115.755896875,14.36500732421875C115.755896875,15.77500732421875,115.222396875,16.866307324218752,114.155296875,17.63870732421875C113.088186875,18.41120732421875,111.527666875,18.79750732421875,109.473716875,18.79750732421875C108.783716875,18.79750732421875,108.153886875,18.75620732421875,107.584236875,18.67380732421875C107.014586875,18.59120732421875,106.509116875,18.49000732421875,106.067836875,18.37000732421875C105.626566875,18.25000732421875,105.245456875,18.12620732421875,104.924528875,17.998807324218753C104.603596875,17.871307324218748,104.346852875,17.755007324218752,104.154296875,17.65000732421875L105.044872875,15.33250732421875C105.478126875,15.55750732421875,106.063826875,15.78250732421875,106.801966875,16.00750732421875C107.540106875,16.23250732421875,108.430686875,16.34500732421875,109.473716875,16.34500732421875Z" fill="#FFFFFF" fill-opacity="1"/><path d="M106.889436875,15.72050732421875Q107.953876875,16.04500732421875,109.473716875,16.04500732421875Q111.016606875,16.04500732421875,111.685656875,15.58100732421875Q112.302786875,15.15300732421875,112.302786875,14.36500732421875Q112.302786875,13.88840732421875,112.095536875,13.55630732421875Q111.875456875,13.20360732421875,111.456726875,12.91260732421875Q111.013586875,12.60460732421875,110.369106875,12.33561732421875Q109.708066875,12.05975732421875,108.854926875,11.79392732421875L108.851566875,11.79287732421875L108.848226875,11.79174732421875Q107.969926875,11.49526732421875,107.152236875,11.14160732421875Q106.305376875,10.77532732421875,105.657836875,10.22935732421875Q104.998497875,9.673457324218749,104.597986875,8.90052732421875Q104.191272175,8.11561732421875,104.191272175,7.03000732421875Q104.191272175,4.76730732421875,105.872866875,3.47348932421875Q107.518286875,2.20750732421875,110.316156875,2.20750732421875Q111.920246875,2.20750732421875,113.173976875,2.54401232421875Q114.424296875,2.87960132421875,115.153896875,3.2794183242187502L115.388796875,3.40814632421875L114.223996875,6.2558973242187506L113.932136875,6.10341732421875Q113.147786875,5.69368732421875,112.210376875,5.47731732421875Q111.268836875,5.2600073242187495,110.268016875,5.2600073242187495Q109.133776875,5.2600073242187495,108.524636875,5.67956732421875Q107.968476875,6.06264732421875,107.968476875,6.76000732421875Q107.968476875,7.19252732421875,108.152576875,7.49142732421875Q108.348386875,7.80932732421875,108.718136875,8.06608732421875Q109.115326875,8.341897324218749,109.654146875,8.57766732421875Q110.207386875,8.81973732421875,110.868486875,9.04044732421875Q112.063316875,9.45072732421875,113.002506875,9.87259732421875Q113.972006875,10.30807732421875,114.644796875,10.91321732421875Q115.331196875,11.53064732421875,115.694096875,12.36679732421875Q116.055896875,13.20020732421875,116.055896875,14.36500732421875Q116.055896875,16.633207324218752,114.331196875,17.881807324218748Q112.651836875,19.09750732421875,109.473716875,19.09750732421875Q108.417086875,19.09750732421875,107.541236875,18.97070732421875Q106.668636875,18.84430732421875,105.989116875,18.65950732421875Q105.310876875,18.475107324218747,104.813764875,18.27760732421875Q104.315477875,18.07960732421875,104.010673875,17.913407324218753L103.780024875,17.787607324218747L104.885244875,14.91160732421875L105.183136875,15.06630732421875Q105.808556875,15.39110732421875,106.889436875,15.72050732421875ZM106.714496875,16.29450732421875Q105.580916875,15.94890732421875,104.906607875,15.59870732421875L105.044872875,15.33250732421875L105.324906875,15.44010732421875L104.434331875,17.75760732421875L104.154296875,17.65000732421875L104.297919875,17.38660732421875Q104.570798875,17.535407324218752,105.035292875,17.719907324218752Q105.500956875,17.904907324218748,106.146556875,18.08050732421875Q106.790836875,18.25570732421875,107.627236875,18.376807324218753Q108.46032687499999,18.497507324218752,109.473716875,18.497507324218752Q112.457446875,18.497507324218752,113.979366875,17.395707324218748Q115.45589687500001,16.32680732421875,115.45589687500001,14.36500732421875Q115.45589687500001,13.32480732421875,115.14379687499999,12.60570732421875Q114.832796875,11.88937732421875,114.243496875,11.35929732421875Q113.640536875,10.81693732421875,112.75666687500001,10.419917324218751Q111.842496875,10.00929732421875,110.678486875,9.60956732421875Q109.991686875,9.38027732421875,109.413626875,9.12734732421875Q108.821176875,8.868117324218751,108.375916875,8.55891732421875Q107.903226875,8.23068732421875,107.641706875,7.80608732421875Q107.368476875,7.36247732421875,107.368476875,6.76000732421875Q107.368476875,5.74736732421875,108.184286875,5.1854473242187495Q108.947136875,4.66000732421875,110.268016875,4.66000732421875Q111.337186875,4.66000732421875,112.345316875,4.89269732421875Q113.357536875,5.1263273242187495,114.209896875,5.57159732421875L114.071036875,5.83750732421875L113.793366875,5.723927324218749L114.732096875,3.42893232421875L115.009796875,3.54250732421875L114.865596875,3.80559732421875Q114.199196875,3.44041032421875,113.018446875,3.12350232421875Q111.841126875,2.80750732421875,110.316156875,2.80750732421875Q107.722396875,2.80750732421875,106.238746875,3.9490273242187497Q104.791271875,5.06270732421875,104.791271875,7.03000732421875Q104.791271875,7.96939732421875,105.130713875,8.62448732421875Q105.476386875,9.29157732421875,106.044596875,9.77064732421875Q106.624616875,10.25968732421875,107.390416875,10.59090732421875Q108.185316875,10.93471732421875,109.040126875,11.22326732421875L108.944176875,11.50750732421875L109.033426875,11.22108732421875Q109.913296875,11.49525732421875,110.600186875,11.78189732421875Q111.303596875,12.07544732421875,111.799186875,12.41991732421875Q112.319186875,12.78140732421875,112.604556875,13.23870732421875Q112.902786875,13.71660732421875,112.902786875,14.36500732421875Q112.902786875,15.46700732421875,112.027586875,16.074007324218748Q111.204306875,16.64500732421875,109.473716875,16.64500732421875Q107.864466875,16.64500732421875,106.714496875,16.29450732421875Z" fill="#FFFFFF" fill-opacity="1"/><path d="M125.7929835546875,11.05744384765625C125.4239135546875,12.377443847656249,125.0267635546875,13.663693847656251,124.6015335546875,14.91619384765625C124.1762935546875,16.16869384765625,123.7550735546875,17.34994384765625,123.3378635546875,18.45994384765625L120.9549635546875,18.45994384765625C120.6340235546875,17.76994384765625,120.2970535546875,16.98244384765625,119.9440235546875,16.09744384765625C119.5910135546875,15.21244384765625,119.2379835546875,14.26744384765625,118.8849535546875,13.26244384765625C118.5319435546875,12.257443847656251,118.1789135546875,11.19994384765625,117.8258835546875,10.08994384765625C117.4728695546875,8.97994384765625,117.1278685546875,7.84744384765625,116.7908935546875,6.69244384765625L119.8718235546875,6.69244384765625C120.0162435546875,7.32244384765625,120.1847235546875,8.00119384765625,120.3772835546875,8.728693847656249C120.5698435546875,9.45619384765625,120.7704235546875,10.19869384765625,120.9790335546875,10.95619384765625C121.1876335546875,11.71369384765625,121.4042635546875,12.45244384765625,121.6289135546875,13.17244384765625C121.8535635546875,13.89244384765625,122.0782135546875,14.55244384765625,122.3028635546875,15.15244384765625C122.5435635546875,14.46244384765625,122.7802535546875,13.749943847656251,123.0129235546875,13.01494384765625C123.2456035546875,12.27994384765625,123.4662435546875,11.54494384765625,123.6748435546875,10.80994384765625C123.8834535546875,10.07494384765625,124.0800235546875,9.35869384765625,124.2645535546875,8.66119384765625C124.4490935546875,7.96369384765625,124.6135735546875,7.30744384765625,124.7579835546875,6.69244384765625L126.9964935546875,6.69244384765625C127.1408935546875,7.30744384765625,127.30139355468751,7.96369384765625,127.4778935546875,8.66119384765625C127.6543935546875,9.35869384765625,127.84289355468749,10.07494384765625,128.0434935546875,10.80994384765625C128.2440935546875,11.54494384765625,128.4606935546875,12.27994384765625,128.6933935546875,13.01494384765625C128.9260935546875,13.749943847656251,129.1627935546875,14.46244384765625,129.4034935546875,15.15244384765625C129.6120935546875,14.55244384765625,129.8286935546875,13.89244384765625,130.0532935546875,13.17244384765625C130.2779935546875,12.45244384765625,130.4985935546875,11.71369384765625,130.7152935546875,10.95619384765625C130.9318935546875,10.19869384765625,131.1364935546875,9.45619384765625,131.3289935546875,8.728693847656249C131.5215935546875,8.00119384765625,131.6900935546875,7.32244384765625,131.8344935546875,6.69244384765625L134.8431935546875,6.69244384765625C134.5062935546875,7.84744384765625,134.1611935546875,8.97994384765625,133.8081935546875,10.08994384765625C133.4551935546875,11.19994384765625,133.1021935546875,12.257443847656251,132.7491935546875,13.26244384765625C132.3960935546875,14.26744384765625,132.0430935546875,15.21244384765625,131.6900935546875,16.09744384765625C131.3370935546875,16.98244384765625,130.9920935546875,17.76994384765625,130.6550935546875,18.45994384765625L128.2961935546875,18.45994384765625C127.8789935546875,17.34994384765625,127.4497935546875,16.16869384765625,127.0084935546875,14.91619384765625C126.5672335546875,13.663693847656251,126.1620535546875,12.377443847656249,125.7929835546875,11.05744384765625Z" fill="#FFFFFF" fill-opacity="1"/><path d="M126.7255535546875,15.01588384765625Q126.0603035546875,13.127663847656251,125.5040635546875,11.13822384765625L125.7929835546875,11.05744384765625L126.0819035546875,11.13822384765625Q125.5260835546875,13.12617384765625,124.88560355468749,15.01264384765625Q124.2462335546875,16.895843847656252,123.6186835546875,18.565443847656248L123.5456035546875,18.759943847656253L120.7636335546875,18.759943847656253L120.6829435546875,18.58644384765625Q120.1980335546875,17.54394384765625,119.6653835546875,16.20859384765625Q119.1335035546875,14.87521384765625,118.6019135546875,13.361863847656249Q118.0708635546875,11.85005384765625,117.5399995546875,10.18086384765625Q117.0093395546875,8.51231384765625,116.5029005546875,6.77646664765625L116.3908605546875,6.39244384765625L120.1108335546875,6.39244384765625L120.1642335546875,6.62541154765625Q120.3797435546875,7.56553984765625,120.6672935546875,8.65193384765625L121.2686435546875,10.87795384765625Q121.5798135546875,12.00786384765625,121.9153035546875,13.083083847656251Q122.2497835546875,14.15511384765625,122.5838235546875,15.04725384765625L122.3028635546875,15.15244384765625L122.0196035546875,15.05363384765625Q122.3791735546875,14.02288384765625,122.7269135546875,12.92440384765625Q123.0745935546875,11.82613384765625,123.3862435546875,10.72803384765625L123.9752535546875,8.58179384765625Q124.2502935546875,7.54216284765625,124.46592355468749,6.62386434765625L124.5202635546875,6.39244384765625L127.2319935546875,6.39244384765625L127.7692935546875,8.58993384765625Q128.0327935546875,9.631093847656249,128.3328935546875,10.73096384765625Q128.6321935546875,11.827543847656251,128.9793935546875,12.92440384765625Q129.3270935546875,14.02287384765625,129.6866935546875,15.05363384765625L129.4034935546875,15.15244384765625L129.12009355468751,15.05392384765625Q129.4314935546875,14.15824384765625,129.7669935546875,13.083083847656251Q130.1027935546875,12.00676384765625,130.4267935546875,10.87370384765625Q130.7507935546875,9.74094384765625,131.0389935546875,8.65193384765625Q131.3264935546875,7.5658268476562505,131.5420935546875,6.62540894765625L131.5954935546875,6.39244384765625L135.2432935546875,6.39244384765625L135.1311935546875,6.77646684765625Q134.6247935546875,8.51222384765625,134.0940935546875,10.18086384765625Q133.5631935546875,11.85021384765625,133.0321935546875,13.36187384765625Q132.5005935546875,14.87522384765625,131.9686935546875,16.20859384765625Q131.4349935546875,17.546543847656253,130.9246935546875,18.59164384765625L130.8423935546875,18.759943847656253L128.0884935546875,18.759943847656253L128.0153935546875,18.565443847656248Q127.3885935546875,16.89774384765625,126.7255535546875,15.01588384765625L126.7255535546875,15.01588384765625ZM127.2914935546875,14.81650384765625Q127.9523935546875,16.69244384765625,128.5770935546875,18.35444384765625L128.2961935546875,18.45994384765625L128.2961935546875,18.15994384765625L130.6550935546875,18.15994384765625L130.6550935546875,18.45994384765625L130.3854935546875,18.32824384765625Q130.8859935546875,17.30344384765625,131.4113935546875,15.98629384765625Q131.9385935546875,14.66467384765625,132.4660935546875,13.16302384765625Q132.9940935546875,11.65993384765625,133.5222935546875,9.99902384765625Q134.0507935546875,8.33724384765625,134.5551935546875,6.60842084765625L134.8431935546875,6.69244384765625L134.8431935546875,6.99244384765625L131.8344935546875,6.99244384765625L131.8344935546875,6.69244384765625L132.1268935546875,6.75947824765625Q131.9090935546875,7.70964384765625,131.6190935546875,8.80545384765625Q131.3292935546875,9.90022384765625,131.0036935546875,11.03868384765625Q130.6776935546875,12.17863384765625,130.3396935546875,13.26180384765625Q130.0013935546875,14.34616384765625,129.6867935546875,15.25096384765625L129.4038935546875,16.06462384765625L129.1201935546875,15.25125384765625Q128.7577935546875,14.212273847656249,128.4073935546875,13.105483847656249Q128.0564935546875,11.99713384765625,127.7540935546875,10.888923847656251Q127.45249355468749,9.783683847656249,127.1864935546875,8.73245384765625L126.7050535546875,6.76370084765625L126.9964935546875,6.69244384765625L126.9964935546875,6.99244384765625L124.7579835546875,6.99244384765625L124.7579835546875,6.69244384765625L125.0500335546875,6.76102354765625Q124.8324835546875,7.68751184765625,124.55385355468749,8.74059384765625L123.9634435546875,10.89185384765625Q123.6493235546875,11.99864384765625,123.2989335546875,13.105483847656249Q122.9485635546875,14.212273847656249,122.5861235546875,15.25125384765625L122.3128435546875,16.03465384765625L122.0219135546875,15.25763384765625Q121.6820135546875,14.34981384765625,121.3425335546875,13.26180384765625Q121.0040335546875,12.176933847656251,120.6894135546875,11.03443384765625L120.0872735546875,8.80545384765625Q119.7971635546875,7.70938384765625,119.5794035546875,6.75947614765625L119.8718235546875,6.69244384765625L119.8718235546875,6.99244384765625L116.7908935546875,6.99244384765625L116.7908935546875,6.69244384765625L117.0788865546875,6.60842054765625Q117.5833055546875,8.33734384765625,118.1117735546875,9.99902384765625Q118.6399335546875,11.65967384765625,119.1680035546875,13.16301384765625Q119.6954435546875,14.664543847656251,120.2226735546875,15.98629384765625Q120.7491335546875,17.306043847656248,121.2269735546875,18.33344384765625L120.9549635546875,18.45994384765625L120.9549635546875,18.15994384765625L123.3378635546875,18.15994384765625L123.3378635546875,18.45994384765625L123.0570535546875,18.35444384765625Q123.6811935546875,16.69384384765625,124.3174535546875,14.81974384765625Q124.9526535546875,12.94882384765625,125.5040635546875,10.976663847656251L125.7929835546875,9.94332384765625L126.0819035546875,10.976663847656251Q126.6327935546875,12.94699384765625,127.2914935546875,14.81650384765625L127.2914935546875,14.81650384765625Z" fill="#FFFFFF" fill-opacity="1"/><path d="M141.4865342578125,16.54740234375C142.3851342578125,16.54740234375,143.0671242578125,16.50240234375,143.5324742578125,16.41240234375L143.5324742578125,13.397402343749999C143.3719942578125,13.35240234375,143.1393242578125,13.307402343749999,142.8344342578125,13.26240234375C142.5295642578125,13.217402343749999,142.1925842578125,13.19490234375,141.8235142578125,13.19490234375C141.5025842578125,13.19490234375,141.17763425781249,13.217402343749999,140.8486942578125,13.26240234375C140.5197342578125,13.307402343749999,140.2228742578125,13.38990234375,139.9581042578125,13.50990234375C139.6933342578125,13.62990234375,139.4807242578125,13.79865234375,139.3202642578125,14.01615234375C139.1597842578125,14.23365234375,139.0795642578125,14.50740234375,139.0795642578125,14.83740234375C139.0795642578125,15.48240234375,139.2961942578125,15.92865234375,139.7294442578125,16.176152343749997C140.1626942578125,16.42370234375,140.7483942578125,16.54740234375,141.4865342578125,16.54740234375ZM141.2458342578125,6.39990234375C142.2086242578125,6.39990234375,143.0189842578125,6.51240234375,143.6768842578125,6.73740234375C144.3347942578125,6.96240234375,144.8603142578125,7.2774023437499995,145.2534542578125,7.68240234375C145.6465942578125,8.08740234375,145.9274142578125,8.57865234375,146.0958942578125,9.15615234375C146.2644142578125,9.73365234375,146.3486142578125,10.36740234375,146.3486142578125,11.057402343749999L146.3486142578125,18.18990234375C145.8993242578125,18.279902343750003,145.2213642578125,18.38860234375,144.3147342578125,18.51610234375C143.40811425781249,18.64360234375,142.3851342578125,18.707402343749997,141.2458342578125,18.707402343749997C140.4916442578125,18.707402343749997,139.8016442578125,18.639902343750002,139.1758342578125,18.50490234375C138.5500242578125,18.36990234375,138.0164842578125,18.152402343749998,137.5752042578125,17.85240234375C137.1339182578125,17.55240234375,136.7889242578125,17.16240234375,136.5401922578125,16.68240234375C136.2914732578125,16.202402343750002,136.1671142578125,15.60990234375,136.1671142578125,14.90490234375C136.1671142578125,14.22990234375,136.3075232578125,13.65990234375,136.5883422578125,13.19490234375C136.8691492578125,12.72990234375,137.2502542578125,12.35115234375,137.7316442578125,12.058652343750001C138.2130442578125,11.76615234375,138.7706542578125,11.55615234375,139.4045042578125,11.428652343749999C140.0383342578125,11.301152343750001,140.7002642578125,11.23740234375,141.3902642578125,11.23740234375C141.7111842578125,11.23740234375,142.0481642578125,11.25615234375,142.4011842578125,11.29365234375C142.7542142578125,11.33115234375,143.1313042578125,11.394902343750001,143.5324742578125,11.48490234375L143.5324742578125,11.03490234375C143.5324742578125,10.71990234375,143.4923542578125,10.41990234375,143.4121142578125,10.13490234375C143.3318842578125,9.84990234375,143.1914742578125,9.59865234375,142.9908942578125,9.38115234375C142.7903142578125,9.16365234375,142.5255442578125,8.99490234375,142.1965942578125,8.87490234375C141.8676342578125,8.75490234375,141.4544342578125,8.69490234375,140.9570042578125,8.69490234375C140.2830442578125,8.69490234375,139.6652542578125,8.73990234375,139.1036242578125,8.82990234375C138.5420042578125,8.91990234375,138.0846742578125,9.02490234375,137.7316442578125,9.144902343750001L137.3706042578125,6.93990234375C137.7396742578125,6.81990234375,138.2772342578125,6.69990234375,138.9832842578125,6.57990234375C139.6893242578125,6.45990264375,140.4435142578125,6.39990234375,141.2458342578125,6.39990234375Z" fill="#FFFFFF" fill-opacity="1"/><path d="M138.9330142578125,6.28414434375Q140.0170342578125,6.09990234375,141.2458342578125,6.09990234375Q142.7399142578125,6.09990234375,143.7739642578125,6.45354394375Q144.8289042578125,6.81432334375,145.4687142578125,7.47345234375Q146.1103142578125,8.134392343750001,146.3839142578125,9.072132343749999Q146.6486142578125,9.97951234375,146.6486142578125,11.057402343749999L146.6486142578125,18.435802343749998L146.4075142578125,18.48410234375Q145.7250842578125,18.62080234375,144.3565042578125,18.81320234375Q142.9758042578125,19.00740234375,141.2458342578125,19.00740234375Q140.0825642578125,19.00740234375,139.1125742578125,18.79820234375Q138.1167742578125,18.58330234375,137.4065342578125,18.10050234375Q136.6818582578125,17.607802343750002,136.2738302578125,16.82040234375Q135.8671142578125,16.03551234375,135.8671142578125,14.90490234375Q135.8671142578125,13.808842343750001,136.3315392578125,13.03981234375Q136.7908142578125,12.279282343750001,137.5758642578125,11.802272343750001Q138.3429742578125,11.33617234375,139.3453442578125,11.134542343749999Q140.3253742578125,10.93740234375,141.3902642578125,10.93740234375Q141.8875342578125,10.93740234375,142.4328742578125,10.99533234375Q142.9795642578125,11.053402343750001,143.5981442578125,11.19218234375L143.5324742578125,11.48490234375L143.2324742578125,11.48490234375L143.2324742578125,11.03490234375Q143.2324742578125,10.60382234375,143.1233442578125,10.21620234375Q143.0224842578125,9.85792234375,142.7703642578125,9.58453234375Q142.5188342578125,9.31179234375,142.0937842578125,9.15673234375Q141.6501442578125,8.99490234375,140.9570042578125,8.99490234375Q139.9699542578125,8.99490234375,139.1510942578125,9.12612234375Q138.3337042578125,9.25711234375,137.8281942578125,9.42894234375L137.4928242578125,9.54294234375L137.0329312578125,6.73423334375L137.2778442578125,6.65460334375Q137.8523242578125,6.46781704375,138.9330142578125,6.28414334375L138.9330142578125,6.28414434375ZM139.0335542578125,6.87566134375Q137.9961242578125,7.05198234375,137.4633642578125,7.22520134375L137.3706042578125,6.93990234375L137.6666642578125,6.89142634375L138.0277042578125,9.09642234375L137.7316442578125,9.144902343750001L137.6350942578125,8.86086234375Q138.1886442578125,8.67270234375,139.0561642578125,8.53368234375Q139.9221842578125,8.394902343750001,140.9570042578125,8.394902343750001Q141.7561642578125,8.394902343750001,142.2994042578125,8.59307234375Q142.8612142578125,8.798012343749999,143.2114342578125,9.17777234375Q143.5610742578125,9.55690234375,143.7008842578125,10.05360234375Q143.8324742578125,10.52097234375,143.8324742578125,11.03490234375L143.8324742578125,11.85966234375L143.4667942578125,11.77762234375Q142.8818842578125,11.646402343750001,142.3694942578125,11.591972343750001Q141.8557542578125,11.53740234375,141.3902642578125,11.53740234375Q140.3851242578125,11.53740234375,139.4636642578125,11.72276234375Q138.5645342578125,11.903622343750001,137.8874342578125,12.315032343750001Q137.2282742578125,12.71555234375,136.8451462578125,13.34999234375Q136.4671142578125,13.97596234375,136.4671142578125,14.90490234375Q136.4671142578125,15.88929234375,136.8065542578125,16.54440234375Q137.1447352578125,17.19700234375,137.7438642578125,17.60430234375Q138.3574842578125,18.02150234375,139.2390942578125,18.211602343750002Q140.1465442578125,18.40740234375,141.2458342578125,18.40740234375Q142.9338242578125,18.40740234375,144.2729542578125,18.219102343750002Q145.6243142578125,18.02900234375,146.2897142578125,17.89570234375L146.3486142578125,18.18990234375L146.0486242578125,18.18990234375L146.0486242578125,11.057402343749999Q146.0486242578125,10.06525234375,145.8079042578125,9.24017234375Q145.5760342578125,8.44543234375,145.0381842578125,7.89135234375Q144.4985942578125,7.33548034375,143.5798042578125,7.02126134375Q142.6401442578125,6.69990234375,141.2458342578125,6.69990234375Q140.0676542578125,6.69990234375,139.0335542578125,6.87566134375L139.0335542578125,6.87566134375ZM139.8782542578125,15.91566234375Q140.4589642578125,16.24740234375,141.4865342578125,16.24740234375Q142.8057142578125,16.24740234375,143.4755042578125,16.117862343749998L143.5324742578125,16.41240234375L143.2324742578125,16.41240234375L143.2324742578125,13.397402343749999L143.5324742578125,13.397402343749999L143.4514642578125,13.68626234375Q143.2290942578125,13.62390234375,142.7906342578125,13.55919234375Q142.3550942578125,13.494902343749999,141.8235142578125,13.494902343749999Q141.3625342578125,13.494902343749999,140.8893542578125,13.55963234375Q140.4392642578125,13.62120234375,140.0819542578125,13.78315234375Q139.7559742578125,13.93089234375,139.5616742578125,14.19425234375Q139.3795642578125,14.44108234375,139.3795642578125,14.83740234375Q139.3795642578125,15.63077234375,139.8782542578125,15.91566234375L139.8782542578125,15.91566234375ZM139.5806342578125,16.43660234375Q138.7795642578125,15.97902234375,138.7795642578125,14.83740234375Q138.7795642578125,14.24369234375,139.0788542578125,13.83805234375Q139.3659342578125,13.448912343749999,139.8342642578125,13.23666234375Q140.2712642578125,13.03860234375,140.8080242578125,12.96517234375Q141.3216942578125,12.894902343750001,141.8235142578125,12.894902343750001Q142.3991342578125,12.894902343750001,142.8782442578125,12.965622343749999Q143.3544042578125,13.03589234375,143.6134742578125,13.108542343749999L143.8324742578125,13.16996234375L143.8324742578125,16.659902343749998L143.5894342578125,16.706902343750002Q142.8631942578125,16.847402343749998,141.4865342578125,16.847402343749998Q140.2996642578125,16.847402343749998,139.5806342578125,16.43660234375L139.5806342578125,16.43660234375Z" fill="#FFFFFF" fill-opacity="1"/><path d="M158.2629766015625,12.63250732421875C158.2629766015625,11.41750732421875,157.9701266015625,10.47250732421875,157.3844366015625,9.79750732421875C156.7987266015625,9.12250732421875,155.8560066015625,8.78500732421875,154.5562266015625,8.78500732421875C154.2834366015625,8.78500732421875,153.9986166015625,8.79625732421875,153.7017466015625,8.81875732421875C153.4048866015625,8.84125732421875,153.1120366015625,8.89000732421875,152.8232166015625,8.96500732421875L152.8232166015625,15.69250732421875C153.0799466015625,15.85750732421875,153.4209366015625,16.01125732421875,153.8461766015625,16.153757324218752C154.2714066015625,16.29625732421875,154.7247166015625,16.36750732421875,155.2061066015625,16.36750732421875C156.2651866015625,16.36750732421875,157.0394266015625,16.03000732421875,157.5288466015625,15.35500732421875C158.0182666015625,14.68000732421875,158.2629766015625,13.77250732421875,158.2629766015625,12.63250732421875ZM161.2476666015625,12.58750732421875C161.2476666015625,13.48750732421875,161.1232666015625,14.31250732421875,160.8745666015625,15.06250732421875C160.6258666015625,15.81250732421875,160.2687666015625,16.45750732421875,159.8034466015625,16.997507324218752C159.3380966015625,17.53750732421875,158.7564066015625,17.95750732421875,158.0583866015625,18.25750732421875C157.3603666015625,18.55750732421875,156.5700766015625,18.70750732421875,155.6875066015625,18.70750732421875C155.0937866015625,18.70750732421875,154.5482066015625,18.64000732421875,154.0507666015625,18.505007324218752C153.5533166015625,18.37000732421875,153.1441366015625,18.22000732421875,152.8232166015625,18.05500732421875L152.8232166015625,22.62250732421875L149.9107666015625,22.62250732421875L149.9107666015625,7.07500732421875C150.5044796015625,6.92500732421875,151.2345966015625,6.78250732421875,152.1011166015625,6.64750732421875C152.9676266015625,6.51250712421875,153.8822766015625,6.44500732421875,154.8450666015625,6.44500732421875C155.8399566015625,6.44500732421875,156.7305366015625,6.58750732421875,157.5168066015625,6.87250732421875C158.3030866015625,7.15750732421875,158.9730366015625,7.56625732421875,159.5266366015625,8.09875732421875C160.0802666015625,8.63125732421875,160.5054666015625,9.27625732421875,160.8023666015625,10.033757324218751C161.0991666015625,10.791257324218751,161.2476666015625,11.64250732421875,161.2476666015625,12.58750732421875Z" fill="#FFFFFF" fill-opacity="1"/><path d="M161.0816666015625,9.92429732421875Q161.5476666015625,11.11335732421875,161.5476666015625,12.58750732421875Q161.5476666015625,13.98591732421875,161.1592666015625,15.15693732421875Q160.7674666015625,16.338347324218752,160.0306666015625,17.19330732421875Q159.2874866015625,18.055807324218748,158.1768366015625,18.53310732421875Q157.0730966015625,19.00750732421875,155.6875066015625,19.00750732421875Q154.7569366015625,19.00750732421875,153.9721966015625,18.79450732421875Q153.1955366015625,18.58380732421875,152.6860366015625,18.32180732421875L152.8232166015625,18.05500732421875L153.1232166015625,18.05500732421875L153.1232166015625,22.92250732421875L149.6107666015625,22.92250732421875L149.6107666015625,6.84137532421875L149.8372814015625,6.78414632421875Q150.7413636015625,6.55573232421875,152.0549266015625,6.35108322421875Q153.3776466015625,6.14500732421875,154.8450666015625,6.14500732421875Q156.3900966015625,6.14500732421875,157.6190466015625,6.59046332421875Q158.8583166015625,7.03966232421875,159.7346066015625,7.88254732421875Q160.61236660156248,8.72686732421875,161.0816666015625,9.92429732421875L161.0816666015625,9.92429732421875ZM160.5229666015625,10.14321732421875Q160.1017666015625,9.06816732421875,159.3186666015625,8.31496732421875Q158.5341466015625,7.56035732421875,157.4145766015625,7.15455032421875Q156.2847066015625,6.74500732421875,154.8450666015625,6.74500732421875Q153.4241066015625,6.74500732421875,152.1472966015625,6.94393132421875Q150.8612896015625,7.14428632421875,149.9842518015625,7.36586832421875L149.9107666015625,7.07500732421875L150.2107666015625,7.07500732421875L150.2107666015625,22.62250732421875L149.9107666015625,22.62250732421875L149.9107666015625,22.322507324218748L152.8232166015625,22.322507324218748L152.8232166015625,22.62250732421875L152.5232166015625,22.62250732421875L152.5232166015625,17.56340732421875L152.9603866015625,17.78820732421875Q153.41367660156249,18.02130732421875,154.1293466015625,18.21550732421875Q154.8369066015625,18.40750732421875,155.6875066015625,18.40750732421875Q156.9496166015625,18.40750732421875,157.9399266015625,17.98190732421875Q158.9233566015625,17.55920732421875,159.5761866015625,16.80170732421875Q160.2353666015625,16.03668732421875,160.5897666015625,14.96807732421875Q160.9476666015625,13.88902732421875,160.9476666015625,12.58750732421875Q160.9476666015625,11.22672732421875,160.5230666015625,10.14321732421875L160.5229666015625,10.14321732421875ZM157.2859666015625,15.17890732421875Q157.9629766015625,14.245187324218751,157.9629766015625,12.63250732421875Q157.9629766015625,10.92202732421875,157.1578366015625,9.99411732421875Q156.3689866015625,9.08500732421875,154.5562266015625,9.08500732421875Q154.1584066015625,9.08500732421875,153.7244166015625,9.11789732421875Q153.3058766015625,9.14962732421875,152.8986166015625,9.255377324218749L152.8232166015625,8.96500732421875L153.1232166015625,8.96500732421875L153.1232166015625,15.69250732421875L152.8232166015625,15.69250732421875L152.9854066015625,15.44012732421875Q153.3390766015625,15.66742732421875,153.9414966015625,15.86930732421875Q154.53294660156251,16.067507324218752,155.2061066015625,16.067507324218752Q156.6416766015625,16.067507324218752,157.2859666015625,15.17890732421875ZM157.7717166015625,15.53110732421875Q156.9477566015625,16.66750732421875,155.2061066015625,16.66750732421875Q154.4350966015625,16.66750732421875,153.7508466015625,16.43820732421875Q153.0775666015625,16.212587324218752,152.6610166015625,15.94487732421875L152.5232166015625,15.85631732421875L152.5232166015625,8.73295732421875L152.7478166015625,8.67463732421875Q153.2070166015625,8.55539732421875,153.6790766015625,8.51961732421875Q154.1356966015625,8.48500732421875,154.5562266015625,8.48500732421875Q156.6427566015625,8.48500732421875,157.61102660156251,9.60089732421875Q158.5629766015625,10.69799732421875,158.5629766015625,12.63250732421875Q158.5629766015625,14.439817324218751,157.7717166015625,15.53110732421875Z" fill="#FFFFFF" fill-opacity="1"/></g></g></g></g></g></g></svg>